<svg fill="none" height="47" viewBox="0 0 47 47" width="47" xmlns="http://www.w3.org/2000/svg"><path d="m32.457 15.3447c0 .7332-.2099 1.4175-.5716 1.9965-.6662 1.0649-1.8484 1.7725-3.1967 1.7725-1.0814 0-2.056-.4557-2.7441-1.1851-.6347-.6746-1.0242-1.5838-1.0242-2.5839 0-.264.0271-.5211.079-.7693.3549-1.7123 1.8717-2.999 3.6893-2.999 1.5514 0 2.8839.9378 3.4607 2.2771.1985.4572.3076.9618.3076 1.4912z" fill="#3addc1"/><path d="m34.4829 25.9434-.4722.473-10.4716 10.4716v-4.4669l8.2381-8.2381.473-.4723c1.6657-1.6664 1.6657-4.3774-.0007-6.0438-.1158-.1158-.2377-.2248-.364-.3256.3617-.579.5715-1.2634.5715-1.9966 0-.5294-.109-1.034-.3075-1.4912.8482.361 1.6416.8881 2.3334 1.58 2.9027 2.9027 2.9027 7.608 0 10.5099z" fill="#3addc1"/><path d="m23.5391 0v5.17526c10.1024.02106 18.2856 8.21714 18.2856 18.32474s-8.1832 18.3029-18.2856 18.324v5.176c12.9607-.0211 23.4609-10.534 23.4609-23.5s-10.5002-23.478944-23.4609-23.5zm-23.499996 24.8596v-2.7185c-.02632.4497-.039104.9024-.039104 1.3589s.012784.9099.039104 1.3596z" fill="#77a2c9"/><path d="m5.17522 23.5c0 10.1204 8.20428 18.324 18.32478 18.324h.0391v5.176h-.0391c-12.5223 0-22.757066-9.7941-23.4609375-22.1404v-2.7185c.7038715-12.3463 10.9386375-22.1411 23.4609375-22.1411h.0391v5.17526h-.0391c-10.1205 0-18.32478 8.20434-18.32478 18.32474z" fill="#578fca"/><path d="m23.5389 32.4211v4.4669l-.0391.0391-10.5107-10.5107-.4722-.473c-2.90274-2.902-2.90274-7.6073 0-10.51.6918-.6918 1.4852-1.219 2.3334-1.5799.5768-1.3393 1.9094-2.2771 3.4607-2.2771 1.8176 0 3.3344 1.2867 3.6894 2.999.0518.2482.0789.5053.0789.7693 0 1.0001-.3895 1.9093-1.0242 2.5839-.6881.7294-1.6627 1.1851-2.7441 1.1851-1.3483 0-2.5304-.7076-3.1967-1.7725-.1263.1008-.2482.2099-.364.3257-.8076.8069-1.2521 1.88-1.2521 3.0215s.4445 2.2146 1.2514 3.0223l.473.4722 8.2772 8.2773z" fill="#0fbfae"/></svg>