<svg fill="none" height="157" viewBox="0 0 120 157" width="120" xmlns="http://www.w3.org/2000/svg"><path d="m5.69824 144.006c-.44922 0-.80566.019-1.06933.058-.1709.025-.32715.093-.46875.206-.13672.112-.25635.239-.35889.38-.09766.142-.21729.332-.35889.572-.14648.258-.27343.454-.38086.586h-.33691l.1831-2.388c.80567.034 1.84571.051 3.12012.051l2.85645-.007h.95947c.98635 0 1.78465-.02 2.39505-.059l.2343 2.41h-.3515c-.0733-.088-.1489-.198-.2271-.33-.0781-.136-.1294-.224-.1538-.263-.1953-.347-.3784-.618-.5493-.813-.166-.196-.3638-.31-.5933-.345-.166-.024-.3344-.039-.5053-.043-.16604-.01-.376-.015-.62991-.015h-1.1206v7.229c0 .376.06347.657.19042.842.13184.181.30274.303.5127.366.21484.064.53223.122.95215.176 0 .171-.00488.298-.01465.381h-4.84863l-.01465-.381c.08301-.029.2124-.068.38818-.117.28809-.088.51514-.171.68115-.249.16602-.078.30274-.198.41016-.359.11231-.161.16846-.381.16846-.659v-7.229zm9.90966 2.212c.6494 0 1.2402.141 1.7725.425.5371.278.9619.678 1.2744 1.201.3125.517.4687 1.12.4687 1.809 0 .688-.1562 1.299-.4687 1.831-.3125.527-.73.937-1.2525 1.23-.5224.288-1.0937.432-1.7138.432-.6153 0-1.1914-.148-1.7285-.446s-.9668-.711-1.2891-1.238c-.3223-.532-.4834-1.133-.4834-1.802s.1563-1.264.4687-1.787c.3126-.527.73-.935 1.2525-1.223.5273-.288 1.0937-.432 1.6992-.432zm.1758 6.357c.6201 0 1.0913-.222 1.4136-.666.3222-.445.4834-1.028.4834-1.751 0-.625-.0879-1.199-.2637-1.721-.1709-.527-.4175-.947-.7398-1.26-.3222-.312-.6933-.469-1.1132-.469-.3711 0-.7007.091-.9888.271-.2832.181-.5078.459-.6738.835s-.2491.848-.2491 1.414c0 .557.0879 1.094.2637 1.611.1758.513.4248.931.7471 1.253s.6958.483 1.1206.483zm12.5244-4.197c-.0684.005-.1831.008-.3442.008-.1416-.493-.3565-.896-.6446-1.209-.2832-.312-.6469-.469-1.0913-.469-.3076 0-.5517.076-.7324.228-.1758.151-.2637.371-.2637.659 0 .2.0733.385.2198.556.1464.171.3247.323.5346.454.2149.127.4956.279.8423.455.083.039.2075.102.3735.19.5469.293.9449.593 1.1939.901.2539.303.3809.674.3809 1.113 0 .405-.1001.75-.3003 1.033-.2002.278-.4761.491-.8277.637-.3515.142-.7544.212-1.2085.212-.4004 0-.8056-.048-1.2158-.146-.4101-.093-.7471-.22-1.0107-.381v-1.787c.1904-.024.3198-.037.3882-.037.1123.542.31.984.5932 1.326.2881.342.6812.513 1.1792.513.3565 0 .6519-.088.8862-.264.2393-.181.3589-.417.3589-.71 0-.186-.0537-.349-.1611-.491s-.2466-.266-.4175-.374c-.1709-.107-.4272-.251-.769-.432-.459-.244-.8081-.442-1.0474-.593-.3711-.229-.6518-.486-.8423-.769-.1855-.283-.2783-.62-.2783-1.011 0-.376.0952-.696.2856-.959.1905-.269.4493-.471.7764-.608.3272-.137.6958-.205 1.106-.205.3759 0 .7324.046 1.0693.139.3418.093.6494.225.9229.395zm3.0908.769c-.0049.049-.0073.12-.0073.213 0 .615.1099 1.13.3296 1.545.2246.41.5225.716.8935.916.376.195.7959.293 1.2598.293.6152 0 1.2085-.176 1.7798-.528l.2124.206c-.1172.283-.3149.527-.5933.732-.2734.205-.5859.361-.9375.469-.3466.102-.6836.153-1.0107.153-.6152 0-1.1694-.144-1.6626-.432-.4883-.288-.8716-.691-1.1499-1.208-.2734-.518-.4102-1.111-.4102-1.78 0-.679.149-1.284.4468-1.816.2979-.537.6934-.952 1.1865-1.245.4981-.298 1.0303-.447 1.5967-.447.4639 0 .8814.095 1.2525.285.3759.186.6811.45.9155.791.2344.337.3833.726.4468 1.165.0537.225.0805.432.0805.623v.065zm2.6367-.468c.2149-.01.3956-.049.542-.117-.0341-.582-.1709-1.036-.4101-1.363-.2344-.327-.5689-.491-1.0034-.491-.3174 0-.6006.096-.8496.286-.2442.191-.4419.444-.5933.762-.1514.312-.249.657-.293 1.033zm5.3394 2.629c0 .23.0244.435.0732.615.0538.176.1783.332.3736.469s.4883.217.8789.242l-.0073.366h-3.816c0-.039-.0024-.103-.0073-.19 0-.088.0025-.157.0073-.206l.2417-.065c.2588-.069.4444-.132.5567-.191.1123-.058.1953-.161.249-.307.0586-.152.0879-.381.0879-.689v-3.684c-.0635-.107-.1807-.205-.3516-.293-.1709-.093-.3491-.168-.5346-.227-.1807-.059-.271-.086-.271-.081l.0146-.256 1.9483-.52h.4174l.1172 1.348c.2735-.503.5567-.86.8496-1.07.2979-.21.6372-.315 1.0181-.315.1953 0 .3711.042.5273.125.1612.078.2857.181.3736.308.0928.122.1391.246.1391.373 0 .083-.0244.195-.0732.337-.0439.142-.1147.266-.2124.374-.0928.107-.2075.161-.3442.161-.1563 0-.2784-.035-.3663-.103-.0878-.073-.1782-.181-.2709-.322-.0684-.108-.1343-.188-.1978-.242-.0586-.054-.1343-.08-.2271-.08-.1562 0-.2978.046-.4248.139-.122.088-.2294.197-.3222.329s-.2051.308-.3369.528l-.1099.183zm6.709 1.78c-.0586.029-.1319.044-.2197.044-.0928 0-.1661-.015-.2198-.044l-2.2412-5.391c-.083-.205-.1587-.356-.227-.454-.0684-.102-.1343-.173-.1978-.212s-.1538-.076-.271-.11c-.1221-.039-.2344-.081-.3369-.125v-.38h3.2959c0 .039.0049.097.0147.175.0146.078.0219.152.0219.22-.3174.088-.5542.173-.7104.256-.1563.083-.2344.205-.2344.367 0 .048.0122.114.0366.197l1.4942 3.684 1.2597-3.068c.1367-.337.2051-.596.2051-.777-.0146-.171-.0977-.3-.249-.388-.1465-.093-.3809-.178-.7031-.256-.0049-.03-.0074-.086-.0074-.169 0-.058 0-.11 0-.154.0049-.044.0074-.073.0074-.087h2.7246c.0097.083.0146.207.0146.373-.0928.054-.1831.098-.271.132-.1416.063-.2588.124-.3515.183-.0879.054-.1831.139-.2857.256-.0976.118-.1904.274-.2783.469zm5.31-3.941c-.0048.049-.0073.12-.0073.213 0 .615.1099 1.13.3296 1.545.2246.41.5225.716.8936.916.3759.195.7959.293 1.2597.293.6153 0 1.2085-.176 1.7798-.528l.2124.206c-.1172.283-.3149.527-.5932.732-.2735.205-.586.361-.9375.469-.3467.102-.6836.153-1.0108.153-.6152 0-1.1694-.144-1.6626-.432-.4883-.288-.8716-.691-1.1499-1.208-.2734-.518-.4101-1.111-.4101-1.78 0-.679.1489-1.284.4467-1.816.2979-.537.6934-.952 1.1866-1.245.498-.298 1.0302-.447 1.5966-.447.4639 0 .8814.095 1.2525.285.376.186.6811.45.9155.791.2344.337.3833.726.4468 1.165.0537.225.0805.432.0805.623v.065zm2.6368-.468c.2148-.01.3955-.049.542-.117-.0342-.582-.1709-1.036-.4102-1.363-.2344-.327-.5688-.491-1.0034-.491-.3174 0-.6006.096-.8496.286-.2442.191-.4419.444-.5933.762-.1514.312-.249.657-.293 1.033zm10.6567-.139c0-.367-.0342-.677-.1025-.931-.0635-.254-.1954-.459-.3955-.615-.1954-.156-.4761-.234-.8423-.234-.127 0-.2832.027-.4688.08-.1855.054-.3491.132-.4907.235-.1367.097-.2051.212-.2051.344 0 .054.0098.107.0293.161.0195.049.0513.112.0952.191.044.073.0757.136.0952.19.0196.054.0293.11.0293.168 0 .196-.0634.359-.1904.491-.1221.127-.2808.191-.4761.191-.2441 0-.4394-.091-.5859-.271-.1416-.181-.2124-.398-.2124-.652 0-.381.1489-.696.4468-.945.2978-.249.6567-.432 1.0766-.549.4248-.118.8203-.176 1.1866-.176.6884 0 1.2011.102 1.538.307.3418.201.5664.496.6739.887.1123.385.1684.927.1684 1.626l-.0146.366c-.0049.107-.0122.285-.022.534-.0049.25-.0073.479-.0073.689 0 1.099.1147 1.648.3442 1.648.166 0 .3809-.169.6446-.505l.3076.329c-.2149.352-.4273.615-.6372.791-.21.171-.4859.256-.8277.256-.3222 0-.5884-.1-.7983-.3-.2051-.205-.3174-.469-.3369-.791-.3125.342-.6641.611-1.0547.806-.3858.19-.7959.285-1.2305.285-.3027 0-.5835-.053-.8423-.161-.2539-.112-.459-.278-.6152-.498-.1514-.219-.2271-.483-.2271-.791 0-.464.1783-.849.5347-1.157.3565-.308.7666-.542 1.2305-.703s1.0303-.322 1.6992-.483c.0586-.01.2197-.049.4834-.118zm0 1.127c-.0732.025-.166.054-.2783.088-.4199.137-.7788.269-1.0767.396-.2978.122-.5639.288-.7983.498s-.3516.456-.3516.74c0 .288.0781.515.2344.681.1611.166.3857.249.6738.249s.5664-.071.835-.213c.2685-.146.5224-.336.7617-.571zm5.6323 1.707c0 .42.105.725.315.916.2148.185.5395.3.9741.344 0 .073-.0025.146-.0073.22-.0049.073-.0074.122-.0074.146h-3.7719l-.0074-.234c0-.078.0025-.132.0074-.162.2832-.068.4956-.129.6372-.183.1465-.053.2661-.141.3589-.263.0927-.122.1391-.293.1391-.513v-3.97c-.0586-.112-.1733-.212-.3442-.3-.1709-.093-.3516-.168-.542-.227-.1856-.064-.2783-.093-.2783-.088l.0219-.249 1.9996-.498.4467-.029.0806 1.186c.2686-.361.6103-.659 1.0254-.893.4199-.24.8716-.359 1.355-.359.708 0 1.2573.2 1.6479.6.3906.401.603.999.6372 1.795.0147.312.022.632.022.959v1.634c0 .356.022.615.0659.776.044.161.1123.273.2051.337.0976.058.2588.122.4834.19l.3076.095c.0049.03.0073.084.0073.162l-.0073.234h-3.6108c0-.029-.0025-.078-.0074-.146-.0048-.074-.0073-.147-.0073-.22.0342-.015.1319-.044.293-.088.2588-.073.459-.151.6006-.234.1465-.083.2344-.218.2636-.403.0245-.142.0367-.33.0367-.564v-1.634c0-.649-.0244-1.149-.0733-1.501-.0439-.352-.166-.64-.3662-.864-.1953-.225-.5127-.337-.9521-.337-.3467 0-.6812.1-1.0035.3-.3173.2-.6323.466-.9448.798zm11.9898-6.98c-.0635-.098-.188-.195-.3736-.293-.1806-.098-.3589-.181-.5346-.249-.1709-.068-.2832-.11-.3369-.124l.0146-.257 2.0654-.498.5274-.051v8.62c0 .293.1245.503.3735.63.2539.127.5249.191.813.191v.403l-1.9556.322h-.4907l-.0659-1.135c-.3467.4-.7105.7-1.0913.901-.3809.195-.7886.292-1.2232.292-.5517 0-1.0571-.131-1.5161-.395-.4541-.269-.813-.642-1.0766-1.121-.2637-.483-.3955-1.037-.3955-1.662 0-.718.1464-1.36.4394-1.926.2979-.567.7056-1.009 1.2232-1.326.5175-.318 1.0961-.476 1.7358-.476.2978 0 .5884.046.8716.139.2832.088.6152.222.9961.403zm0 4.871c0-.474-.0415-.855-.1245-1.143-.083-.293-.2515-.552-.5054-.776-.1953-.171-.4053-.303-.6299-.396-.2246-.097-.4517-.146-.6811-.146-.3858 0-.7276.124-1.0254.373-.2979.249-.5298.581-.6958.996-.1612.41-.2417.855-.2417 1.333 0 .464.0805.909.2417 1.333.166.42.4126.765.7397 1.033.3272.269.7227.403 1.1865.403.3711 0 .7007-.081.9888-.242.293-.166.542-.386.7471-.659zm12.7221 2.358c-.1025.327-.2856.606-.5493.835-.2636.23-.5737.403-.9302.52-.3564.112-.7275.168-1.1132.168-.6739 0-1.2574-.156-1.7505-.468-.4883-.318-.8594-.738-1.1133-1.26s-.3809-1.089-.3809-1.699c0-.645.1538-1.233.4615-1.765.3076-.537.7397-.96 1.2963-1.267.5567-.313 1.189-.469 1.897-.469.4102 0 .7862.061 1.128.183.3417.117.6103.286.8056.505.2002.22.3003.474.3003.762 0 .22-.0708.381-.2124.483-.1416.098-.293.147-.4541.147-.1514 0-.2686-.027-.3516-.081-.083-.058-.144-.127-.1831-.205-.0341-.083-.0683-.198-.1025-.344-.0391-.186-.0879-.337-.1465-.454-.0537-.117-.1562-.22-.3076-.308s-.3687-.136-.6519-.146c-.3759-.015-.7275.078-1.0546.278-.3272.195-.5909.488-.7911.879-.1953.391-.2929.859-.2929 1.406 0 .508.0903.974.271 1.399.1806.425.4443.764.791 1.018.3515.254.7715.381 1.2597.381.4248 0 .7789-.051 1.0621-.154.2832-.102.5761-.273.8789-.512zm5.3543-3.083c0-.367-.034-.677-.103-.931-.063-.254-.195-.459-.3953-.615-.1953-.156-.4761-.234-.8423-.234-.1269 0-.2832.027-.4687.08-.1856.054-.3492.132-.4908.235-.1367.097-.205.212-.205.344 0 .054.0097.107.0293.161.0195.049.0512.112.0952.191.0439.073.0757.136.0952.19s.0293.11.0293.168c0 .196-.0635.359-.1904.491-.1221.127-.2808.191-.4761.191-.2442 0-.4395-.091-.586-.271-.1416-.181-.2124-.398-.2124-.652 0-.381.149-.696.4468-.945.2979-.249.6568-.432 1.0767-.549.4248-.118.8203-.176 1.1865-.176.688 0 1.201.102 1.538.307.342.201.566.496.674.887.112.385.168.927.168 1.626l-.014.366c-.005.107-.012.285-.022.534-.005.25-.008.479-.008.689 0 1.099.115 1.648.345 1.648.166 0 .381-.169.644-.505l.308.329c-.215.352-.427.615-.637.791-.21.171-.486.256-.828.256-.322 0-.588-.1-.798-.3-.205-.205-.318-.469-.337-.791-.313.342-.6643.611-1.055.806-.3857.19-.7959.285-1.2304.285-.3028 0-.5835-.053-.8423-.161-.2539-.112-.459-.278-.6153-.498-.1513-.219-.227-.483-.227-.791 0-.464.1782-.849.5347-1.157.3564-.308.7666-.542 1.2304-.703.4639-.161 1.0303-.322 1.6992-.483.0586-.01.2197-.049.4837-.118zm0 1.127c-.074.025-.166.054-.279.088-.4195.137-.7784.269-1.0762.396-.2979.122-.564.288-.7984.498s-.3515.456-.3515.74c0 .288.0781.515.2343.681.1612.166.3858.249.6739.249.288 0 .5664-.071.8349-.213.2686-.146.522-.336.762-.571zm5.625 1.641c0 .23.024.435.073.615.054.176.178.332.374.469.195.137.488.217.878.242l-.007.366h-3.816c0-.039-.002-.103-.007-.19 0-.088.002-.157.007-.206l.242-.065c.259-.069.444-.132.557-.191.112-.058.195-.161.249-.307.058-.152.087-.381.087-.689v-3.684c-.063-.107-.18-.205-.351-.293-.171-.093-.349-.168-.535-.227-.18-.059-.271-.086-.271-.081l.015-.256 1.948-.52h.418l.117 1.348c.273-.503.556-.86.849-1.07.298-.21.638-.315 1.018-.315.196 0 .372.042.528.125.161.078.285.181.373.308.093.122.139.246.139.373 0 .083-.024.195-.073.337-.044.142-.115.266-.212.374-.093.107-.208.161-.344.161-.157 0-.279-.035-.367-.103-.088-.073-.178-.181-.271-.322-.068-.108-.134-.188-.197-.242-.059-.054-.135-.08-.227-.08-.157 0-.298.046-.425.139-.122.088-.23.197-.322.329-.093.132-.206.308-.337.528l-.11.183zm4.753-2.161c-.005.049-.007.12-.007.213 0 .615.11 1.13.329 1.545.225.41.523.716.894.916.376.195.796.293 1.26.293.615 0 1.208-.176 1.78-.528l.212.206c-.117.283-.315.527-.593.732-.274.205-.586.361-.938.469-.347.102-.683.153-1.011.153-.615 0-1.169-.144-1.662-.432-.488-.288-.872-.691-1.15-1.208-.274-.518-.41-1.111-.41-1.78 0-.679.149-1.284.447-1.816.297-.537.693-.952 1.186-1.245.498-.298 1.03-.447 1.597-.447.464 0 .881.095 1.252.285.376.186.681.45.916.791.234.337.383.726.446 1.165.054.225.081.432.081.623v.065zm2.637-.468c.215-.01.395-.049.542-.117-.034-.582-.171-1.036-.41-1.363-.235-.327-.569-.491-1.004-.491-.317 0-.6.096-.849.286-.244.191-.442.444-.594.762-.151.312-.249.657-.293 1.033zm5.566 3.471c0 .176-.046.34-.139.491-.088.151-.21.274-.366.366-.151.093-.32.139-.505.139-.181 0-.35-.046-.506-.139-.151-.088-.273-.207-.366-.359-.088-.156-.132-.322-.132-.498 0-.175.044-.339.132-.49.093-.152.215-.271.366-.359.156-.093.325-.139.506-.139.185 0 .354.046.505.139.156.088.278.207.366.359.093.151.139.315.139.49z" fill="#77a2c9"/><path d="m78.9747 32.2803c0 1.545-.4521 2.987-1.2316 4.2071-1.4358 2.2438-3.9833 3.7349-6.8889 3.7349-2.3304 0-4.4306-.9603-5.9134-2.4973-1.3677-1.4214-2.2072-3.3372-2.2072-5.4447 0-.5562.0584-1.0981.1702-1.6211.7649-3.6081 4.0335-6.3194 7.9504-6.3194 3.3432 0 6.2148 1.976 7.4577 4.7982.4278.9635.6628 2.0267.6628 3.1423z" fill="#3addc1"/><path d="m83.3411 54.6141-1.0177.9967-22.5661 22.0656v-9.4125l17.7531-17.3594 1.0193-.9951c3.5895-3.5115 3.5895-9.224-.0016-12.7355-.2496-.244-.5121-.4737-.7844-.6861.7795-1.2201 1.2317-2.6621 1.2317-4.2071 0-1.1156-.235-2.1788-.6628-3.1423 1.8279.7606 3.5376 1.8714 5.0285 3.3293 6.2553 6.1165 6.2553 16.0314 0 22.1464z" fill="#3addc1"/><path d="m59.763 0v10.9011c21.7862.0443 39.4338 17.3083 39.4338 38.5988s-17.6476 38.5529-39.4338 38.5973v10.9026c27.9504-.0443 50.594-22.1886 50.594-49.4999s-22.6436-49.4555481-50.594-49.4999zm-50.67867 52.3638v-5.7262c-.05676.9473-.08433 1.9008-.08433 2.8623s.02757 1.9167.08433 2.8639z" fill="#77a2c9"/><path d="m20.1879 49.4999c0 21.3175 17.693 38.5973 39.5181 38.5973h.0843v10.9026h-.0843c-27.0049 0-49.0765-20.63-50.59443-46.636v-5.7262c1.51793-26.006 23.58953-46.6376 50.59443-46.6376h.0843v10.9011h-.0843c-21.8251 0-39.5181 17.2814-39.5181 38.5988z" fill="#578fca"/><path d="m59.7912 68.2401v9.4079l-.0843.0823-22.6782-22.1369-1.019-.9963c-6.2629-6.1119-6.2629-16.0218 0-22.1353 1.4928-1.4572 3.2045-2.5674 5.0348-3.3276 1.2445-2.8208 4.1196-4.7958 7.4669-4.7958 3.9216 0 7.1943 2.7099 7.9601 6.3162.112.5227.1704 1.0643.1704 1.6203 0 2.1064-.8405 4.0213-2.2099 5.442-1.4846 1.5363-3.5874 2.496-5.9206 2.496-2.9092 0-5.4599-1.4903-6.8974-3.733-.2726.2122-.5355.4419-.7853.6858-1.7426 1.6994-2.7016 3.9595-2.7016 6.3637 0 2.4043.959 4.6644 2.6999 6.3654l1.0206.9946 17.8593 17.4331z" fill="#0fbfae"/><path d="m18.0625 123.719c.1042.177.1875.359.25.547.0729.187.151.432.2344.734.0416.104.0781.224.1093.359.3646 1.198 1.0573 2.12 2.0782 2.766 1.0208.646 2.1875.969 3.5.969.6875 0 1.3541-.12 2-.36.6562-.25 1.1927-.619 1.6094-1.109.427-.5.6406-1.104.6406-1.813 0-.614-.2188-1.187-.6563-1.718-.4271-.532-.9635-1.005-1.6093-1.422-.6355-.427-1.5157-.953-2.6407-1.578-1.3229-.729-2.3958-1.375-3.2187-1.938-.8229-.562-1.5209-1.229-2.0938-2-.5729-.781-.8594-1.661-.8594-2.64 0-1.209.3386-2.204 1.0157-2.985.6875-.791 1.5625-1.364 2.625-1.719 1.0729-.364 2.2031-.546 3.3906-.546 1.0208 0 2.0365.125 3.0469.375 1.0208.25 1.9896.609 2.9062 1.078l.2032 4.453h-.9688c-.125-.24-.2708-.62-.4375-1.141l-.1563-.453c-.3541-1.021-.9687-1.792-1.8437-2.312-.8646-.532-1.8646-.797-3-.797-.5833 0-1.1719.099-1.7656.297-.5938.198-1.0938.505-1.5.922-.3959.406-.5938.911-.5938 1.515 0 .563.2084 1.089.625 1.578.4167.49.9323.938 1.5469 1.344.6146.396 1.4635.896 2.5469 1.5 1.3854.771 2.5052 1.453 3.3593 2.047.8646.583 1.599 1.292 2.2032 2.125.6146.833.9218 1.776.9218 2.828 0 1.302-.3593 2.391-1.0781 3.266-.7187.864-1.651 1.5-2.7969 1.906-1.1354.406-2.3437.609-3.625.609-1.1458 0-2.3802-.14-3.7031-.422-1.3125-.291-2.375-.687-3.1875-1.187v-5.047zm19.2344-1.938c-.0104.104-.0157.255-.0157.453 0 1.313.2344 2.412.7032 3.297.4791.875 1.1146 1.526 1.9062 1.953.8021.417 1.6979.625 2.6875.625 1.3125 0 2.5781-.375 3.7969-1.125l.4531.438c-.25.604-.6719 1.125-1.2656 1.562-.5833.438-1.25.771-2 1-.7396.219-1.4583.328-2.1563.328-1.3124 0-2.4947-.307-3.5468-.921-1.0417-.615-1.8594-1.474-2.4532-2.579-.5833-1.104-.875-2.369-.875-3.796 0-1.448.3178-2.74.9532-3.875.6354-1.146 1.4791-2.032 2.5312-2.657 1.0625-.635 2.1979-.953 3.4063-.953.9896 0 1.8802.203 2.6719.61.802.395 1.4531.958 1.9531 1.687.5.719.8177 1.547.9531 2.484.1146.48.1719.922.1719 1.329v.14zm5.625-1c.4583-.021.8437-.104 1.1562-.25-.0729-1.239-.3646-2.208-.875-2.906-.5-.698-1.2135-1.047-2.1406-1.047-.6771 0-1.2813.203-1.8125.61-.5208.406-.9427.947-1.2656 1.624-.3229.667-.5313 1.402-.625 2.204zm12.9531 9.407c-.125.062-.2812.093-.4688.093-.1979 0-.3541-.031-.4687-.093l-4.7813-11.5c-.177-.438-.3385-.761-.4843-.969-.1459-.219-.2865-.37-.4219-.453-.1354-.084-.3281-.162-.5781-.235-.2604-.083-.5-.172-.7188-.265v-.813h7.0313c0 .083.0104.208.0312.375.0313.167.0469.323.0469.469-.6771.187-1.1823.37-1.5156.547-.3334.177-.5.437-.5.781 0 .104.026.245.0781.422l3.1875 7.859 2.6875-6.547c.2917-.718.4375-1.27.4375-1.656-.0313-.364-.2083-.641-.5313-.828-.3124-.198-.8124-.38-1.5-.547-.0104-.062-.0156-.182-.0156-.359 0-.125 0-.235 0-.328.0104-.094.0156-.157.0156-.188h5.8126c.0208.177.0312.443.0312.797-.1979.115-.3906.208-.5781.281-.3021.136-.5521.266-.75.391-.1875.114-.3907.297-.6094.547-.2083.25-.4063.583-.5937 1zm10.3438-11.313c-.25-.563-.4896-.984-.7188-1.266-.2292-.281-.4427-.463-.6406-.547-.1875-.093-.4115-.161-.6719-.203-.1563-.02-.3021-.052-.4375-.093v-.813h7.3281c.0209.094.0469.266.0781.516.0417.239.0417.364 0 .375-.6874.125-1.1927.271-1.5156.437-.3229.157-.4844.401-.4844.735 0 .218.0678.541.2032.968l3.0937 7.704 2.6719-7.235c.1562-.406.2344-.76.2344-1.062 0-.448-.1615-.787-.4844-1.016-.3229-.24-.8385-.422-1.5469-.547-.0104-.062-.0156-.182-.0156-.359 0-.125 0-.235 0-.328.0104-.094.0156-.157.0156-.188h5.7344l.0156.797c-.1666.135-.3958.255-.6875.359-.2708.115-.5.23-.6875.344-.1771.104-.3541.276-.5312.516-.1667.239-.3073.567-.4219.984l-5.5469 13.656c-.4583 1.146-1.0052 2.026-1.6406 2.641-.625.615-1.4219.922-2.3906.922-.6979 0-1.2761-.167-1.7344-.5-.4479-.323-.6719-.761-.6719-1.313 0-.406.1406-.75.4219-1.031.2917-.281.6406-.422 1.0469-.422.3646 0 .6354.063.8125.188.1875.125.3698.312.5469.562.1354.188.2604.328.375.422.125.104.2916.156.5.156.3229 0 .6093-.145.8593-.437s.4844-.688.7031-1.188c.2292-.489.5469-1.26.9532-2.312l.1094-.297zm22 1.609c0-.781-.073-1.442-.2188-1.984-.1354-.542-.4167-.979-.8438-1.312-.4166-.334-1.0156-.5-1.7968-.5-.2709 0-.6042.057-1 .171-.3959.115-.7448.282-1.0469.5-.2917.209-.4375.453-.4375.735 0 .114.0208.229.0625.344.0417.104.1094.239.2031.406.0938.156.1615.291.2032.406.0416.115.0624.234.0624.359 0 .417-.1354.766-.4062 1.047-.2604.271-.599.406-1.0156.406-.5209 0-.9375-.192-1.25-.578-.3021-.385-.4532-.849-.4532-1.39 0-.813.3178-1.485.9532-2.016s1.401-.922 2.2968-1.172c.9063-.25 1.75-.375 2.5313-.375 1.4687 0 2.5625.219 3.2813.657.7291.427 1.2083 1.057 1.4374 1.89.2396.823.3594 1.979.3594 3.469l-.0312.781c-.0104.229-.0261.61-.0469 1.141-.0104.531-.0156 1.021-.0156 1.469 0 2.343.2448 3.515.7343 3.515.3542 0 .8126-.359 1.375-1.078l.6563.703c-.4583.75-.9115 1.313-1.3594 1.688-.4479.364-1.0364.546-1.7656.546-.6875 0-1.2552-.213-1.7031-.64-.4375-.438-.6771-1-.7188-1.688-.6666.73-1.4166 1.302-2.25 1.719-.8229.406-1.6979.609-2.625.609-.6458 0-1.2448-.114-1.7968-.343-.5417-.24-.9792-.594-1.3126-1.063-.3229-.468-.4843-1.031-.4843-1.687 0-.99.3802-1.813 1.1406-2.469s1.6354-1.156 2.625-1.5 2.1979-.688 3.625-1.031c.125-.021.4687-.104 1.0313-.25zm0 2.407c-.1563.052-.3542.114-.5938.187-.8958.292-1.6615.573-2.2969.844-.6354.26-1.2031.614-1.7031 1.062s-.75.974-.75 1.578c0 .615.1667 1.099.5 1.454.3438.354.8229.531 1.4375.531s1.2083-.151 1.7813-.453c.5729-.313 1.1145-.719 1.625-1.219z" fill="#77a2c9"/></svg>